<?xml version="1.0" encoding="UTF-8" standalone="no"?>
<svg
   width="767.8125"
   height="898.30701"
   viewBox="-60 -40 76.78125 89.830701"
   id="svg3371"
   version="1.1"
   inkscape:version="1.1.1 (3bf5ae0d25, 2021-09-20)"
   sodipodi:docname="CNOT_logo.svg"
   xmlns:inkscape="http://www.inkscape.org/namespaces/inkscape"
   xmlns:sodipodi="http://sodipodi.sourceforge.net/DTD/sodipodi-0.dtd"
   xmlns="http://www.w3.org/2000/svg"
   xmlns:svg="http://www.w3.org/2000/svg"
   xmlns:rdf="http://www.w3.org/1999/02/22-rdf-syntax-ns#"
   xmlns:cc="http://creativecommons.org/ns#"
   xmlns:dc="http://purl.org/dc/elements/1.1/">
  <metadata
     id="metadata3389">
    <rdf:RDF>
      <cc:Work
         rdf:about="">
        <dc:format>image/svg+xml</dc:format>
        <dc:type
           rdf:resource="http://purl.org/dc/dcmitype/StillImage" />
      </cc:Work>
    </rdf:RDF>
  </metadata>
  <defs
     id="defs3387" />
  <sodipodi:namedview
     pagecolor="#ffffff"
     bordercolor="#666666"
     borderopacity="1"
     objecttolerance="10"
     gridtolerance="10"
     guidetolerance="10"
     inkscape:pageopacity="0"
     inkscape:pageshadow="2"
     inkscape:window-width="1920"
     inkscape:window-height="986"
     id="namedview3385"
     showgrid="false"
     inkscape:zoom="0.31387451"
     inkscape:cx="517.72283"
     inkscape:cy="187.97321"
     inkscape:window-x="-11"
     inkscape:window-y="1609"
     inkscape:window-maximized="1"
     inkscape:current-layer="svg3371"
     inkscape:snap-object-midpoints="true"
     inkscape:object-nodes="true"
     inkscape:object-paths="true"
     inkscape:snap-intersection-paths="true"
     inkscape:snap-global="true"
     fit-margin-top="0"
     fit-margin-left="0"
     fit-margin-right="0"
     fit-margin-bottom="0"
     inkscape:pagecheckerboard="0" />
  <g
     id="g21264"
     transform="translate(-46.539684,102.02191)"
     style="fill:#e70013">
    <path
       id="path910"
       style="fill:#e12032;fill-opacity:1;stroke:none;stroke-width:1px;stroke-linecap:butt;stroke-linejoin:miter;stroke-opacity:1"
       d="M 1543.3809,68.171875 A 148.20168,148.20168 0 0 1 1434.9531,115.38477 148.20168,148.20168 0 0 1 1333.6445,75.304688 V 360.99805 l 209.7364,121.08984 209.7363,-121.08984 V 75.304688 A 148.20168,148.20168 0 0 1 1651.8086,115.38477 148.20168,148.20168 0 0 1 1543.3809,68.171875 Z"
       transform="matrix(0.1,0,0,0.1,-129.4077,-100.4)" />
    <g
       id="g40"
       transform="matrix(0.73931302,0,0,0.73931302,88.909326,-48.730429)">
      <circle
         style="fill:none;stroke:#0885c2;stroke-width:9.5"
         cx="54"
         cy="54"
         r="49.25"
         id="circle3081"
         transform="matrix(0.25069726,0,0,0.25069726,-129.4077,-100.4)" />
      <circle
         style="fill:none;stroke:#000000;stroke-width:9.5"
         cx="171"
         cy="54"
         r="49.25"
         id="circle3083"
         transform="matrix(0.25069726,0,0,0.25069726,-129.4077,-100.4)" />
      <circle
         style="fill:none;stroke:#ed334e;stroke-width:9.5"
         cx="288"
         cy="54"
         r="49.25"
         id="circle3085"
         transform="matrix(0.25069726,0,0,0.25069726,-129.4077,-100.4)" />
      <circle
         style="fill:none;stroke:#fbb132;stroke-width:9.5"
         cx="112.5"
         cy="104"
         r="49.25"
         id="circle3087"
         transform="matrix(0.25069726,0,0,0.25069726,-129.4077,-100.4)" />
      <circle
         style="fill:none;stroke:#1c8b3c;stroke-width:9.5"
         cx="229.5"
         cy="104"
         r="49.25"
         id="circle3089"
         transform="matrix(0.25069726,0,0,0.25069726,-129.4077,-100.4)" />
      <path
         style="fill:none;stroke:#0885c2;stroke-width:9.5"
         inkscape:connector-curvature="0"
         d="m 93.4,24.45 a 49.25,49.25 0 0 1 0,59.1"
         id="path3091"
         transform="matrix(0.25069726,0,0,0.25069726,-129.4077,-100.4)" />
      <path
         style="fill:none;stroke:#000000;stroke-width:9.5"
         inkscape:connector-curvature="0"
         d="m 210.4,24.45 a 49.25,49.25 0 0 1 0,59.1 M 171,103.25 A 49.25,49.25 0 0 1 141.45,93.4"
         id="path3093"
         transform="matrix(0.25069726,0,0,0.25069726,-129.4077,-100.4)" />
      <path
         style="fill:none;stroke:#ed334e;stroke-width:9.5"
         inkscape:connector-curvature="0"
         d="M 288,103.25 A 49.25,49.25 0 0 1 258.45,93.4"
         id="path3095"
         transform="matrix(0.25069726,0,0,0.25069726,-129.4077,-100.4)" />
    </g>
    <g
       id="g3112"
       transform="matrix(0.69764701,0,0,0.69764701,24.930309,-73.127958)"
       style="opacity:1">
      <circle
         id="circle3377"
         r="20"
         cx="0"
         cy="0"
         style="fill:#ffffff" />
      <path
         id="circle3379"
         transform="matrix(0.1,0,0,0.1,-60,-40)"
         d="M 600,250 A 150,150 0 0 0 450,400 150,150 0 0 0 600,550 150,150 0 0 0 721.02344,488.35156 120,120 0 0 1 640,520 120,120 0 0 1 520,400 120,120 0 0 1 640,280 120,120 0 0 1 721.01367,311.67383 150,150 0 0 0 600,250 Z"
         inkscape:connector-curvature="0"
         style="fill:#e12032;fill-opacity:1" />
      <path
         id="path3383"
         d="M 0,-1 0.58779,0.80902 -0.95106,-0.30902 H 0.95106 L -0.58779,0.80902 Z"
         inkscape:connector-curvature="0"
         transform="matrix(0,-9,9,0,4,0)"
         style="fill:#e12032;fill-opacity:1" />
    </g>
    <g
       id="g21636"
       style="fill:#000000"
       transform="translate(0.04513448)">
      <path
         id="path21379"
         style="color:#000000;font-size:19.4424px;-inkscape-font-specification:'Arial Bold';fill:#000000;stroke:none;stroke-width:4;-inkscape-stroke:none"
         d="m 1684.6777,-396.86328 v 19.53125 h 41.2891 v 115.625 h 24.1016 v -115.625 h 41.2109 v -19.53125 z"
         transform="matrix(0.1,0,0,0.1,-181.97322,-102.0973)" />
      <path
         id="path21385"
         style="color:#000000;font-size:19.4424px;-inkscape-font-specification:'Arial Bold';fill:#000000;stroke:none;stroke-width:4;-inkscape-stroke:none"
         d="m 1813.2129,-396.86328 v 72.22851 c 0,15.4905 0.9433,27.16609 2.7148,34.86329 1.1898,5.0566 3.6514,9.92726 7.4805,14.66796 3.7588,4.5942 8.8923,8.38992 15.4883,11.38672 6.4649,2.8469 16.3343,4.39453 29.4726,4.39453 10.8358,0 19.51,-1.38413 25.9961,-4.02343 6.6006,-2.7503 11.7679,-6.36545 15.586,-10.83985 v -0.0195 c 3.8795,-4.4764 6.5497,-9.95973 8.0078,-16.58203 1.446,-6.5674 2.2461,-18.33277 2.2461,-34.98047 v -71.09375 h -24.1016 v 74.98047 c 0,11.0621 -0.4023,18.98128 -1.2695,23.98438 -0.9038,5.2142 -3.6631,9.71571 -8.0274,13.26171 v 0.0195 c -4.5507,3.6264 -11.0526,5.27343 -19.2968,5.27343 -8.1382,0 -14.807,-1.77904 -19.8047,-5.52734 l -0.02,-0.0195 c -4.8427,-3.7514 -7.9878,-8.81378 -9.2773,-14.92188 v -0.0215 -0.0195 c -0.7782,-3.9618 -1.0937,-11.63231 -1.0937,-23.63282 v -73.3789 z"
         transform="matrix(0.1,0,0,0.1,-181.97322,-102.0973)" />
      <path
         id="path21391"
         style="color:#000000;font-size:19.4424px;-inkscape-font-specification:'Arial Bold';fill:#000000;stroke:none;stroke-width:4;-inkscape-stroke:none"
         d="m 1954.0918,-396.86328 v 135.15625 h 22.1094 v -95.78125 l 59.2187,95.78125 h 25.0977 v -135.15625 h -22.1094 v 98.02734 l -60.0781,-98.02734 z"
         transform="matrix(0.1,0,0,0.1,-181.97322,-102.0973)" />
      <path
         id="path21397"
         style="color:#000000;font-size:19.4424px;-inkscape-font-specification:'Arial Bold';fill:#000000;stroke:none;stroke-width:4;-inkscape-stroke:none"
         d="m 2093.3691,-396.86328 v 135.15625 h 24.1016 v -135.15625 z"
         transform="matrix(0.1,0,0,0.1,-181.97322,-102.0973)" />
      <path
         id="path21403"
         style="color:#000000;font-size:19.4424px;-inkscape-font-specification:'Arial Bold';fill:#000000;stroke:none;stroke-width:4;-inkscape-stroke:none"
         d="m 2194.9512,-399.24609 v 0.002 c -10.4947,0 -19.3766,1.592 -26.6602,4.6875 -7.2244,3.0962 -12.6573,7.53824 -16.4844,13.39844 -3.7956,5.8441 -5.664,12.0366 -5.664,18.75 0,10.495 3.9787,19.164 12.1679,26.5039 5.6333,5.0464 15.9364,9.62572 30.8399,13.32032 11.7252,2.9155 19.1896,4.92601 22.6758,6.13281 h 0.021 c 4.9863,1.7714 8.6275,3.89519 10.8984,6.67969 2.2646,2.6369 3.4375,5.947 3.4375,9.6289 0,5.7272 -2.7019,10.87963 -7.6563,15.01953 -5.057,4.2143 -12.3496,6.15235 -21.6796,6.15235 -8.8799,0 -16.2327,-2.25087 -21.7188,-6.91407 v -0.0195 c -5.0018,-4.3054 -7.917,-11.2797 -9.7461,-19.6289 l -23.7305,2.30468 c 2.047,14.0726 7.1232,24.92012 15.6641,32.32422 l 0.019,0.0195 c 8.9631,7.6896 21.9436,11.66016 39.2188,11.66016 11.9032,0 21.7356,-1.66301 29.5117,-4.88281 7.7732,-3.2793 13.6773,-8.16416 17.8906,-14.78516 4.2446,-6.67 6.3282,-13.74355 6.3282,-21.34765 0,-8.5141 -1.7949,-15.48139 -5.293,-21.05469 h -0.02 v -0.0195 c -3.4816,-5.7025 -8.2986,-10.13184 -14.5899,-13.39844 l -0.021,-0.0215 c -6.2329,-3.3282 -16.2215,-6.67561 -29.8047,-9.88281 -13.7665,-3.2504 -22.3994,-6.14753 -26.6406,-9.70703 v -0.0195 c -3.1379,-2.6388 -4.9023,-6.12537 -4.9023,-9.98047 0,-4.1572 1.8883,-7.791 5.2929,-10.2539 5.0734,-3.68341 11.9134,-5.41016 20.3516,-5.41016 8.17,0 14.5497,1.62581 18.9844,5.19531 0,0.004 0.017,-0.003 0.021,0 4.0227,3.1377 6.2105,8.53891 7.6171,14.88281 l 24.5899,-1.07422 c -0.8432,-11.2998 -4.8766,-20.38992 -12.832,-27.26562 h -0.021 c -8.3027,-7.2276 -20.8909,-10.99609 -38.0664,-10.99609 z"
         transform="matrix(0.1,0,0,0.1,-181.97322,-102.0973)" />
      <path
         id="path21409"
         style="color:#000000;font-size:19.4424px;-inkscape-font-specification:'Arial Bold';fill:#000000;stroke:none;stroke-width:4;-inkscape-stroke:none"
         d="m 2277.0605,-396.86328 v 135.15625 h 24.1016 v -135.15625 z"
         transform="matrix(0.1,0,0,0.1,-181.97322,-102.0973)" />
      <path
         id="path21415"
         style="color:#000000;font-size:19.4424px;-inkscape-font-specification:'Arial Bold';fill:#000000;stroke:none;stroke-width:4;-inkscape-stroke:none"
         d="m 2371.3574,-396.86328 -52.6367,135.15625 h 25.4883 l 11.4844,-31.60156 h 58.3984 l 12.1484,31.60156 h 26.25 l -54.1211,-135.15625 z m 13.1446,24.66797 21.0742,56.73828 0.9961,2.69531 h -43.711 z"
         transform="matrix(0.1,0,0,0.1,-181.97322,-102.0973)" />
    </g>
  </g>
</svg>
