<svg width="24" height="173" viewBox="0 0 24 173" fill="none" xmlns="http://www.w3.org/2000/svg">
<path d="M13.904 3.12L13.904 8.896L12.528 8.896L12.528 3.12L13.904 3.12ZM8 3.28L8 1.68L19.2 1.68L19.2 9.584L17.808 9.584L17.808 3.28L8 3.28ZM7.904 14.9786C7.904 14.1253 8.09067 13.368 8.464 12.7066C8.83733 12.0453 9.34933 11.5226 10 11.1386C10.6613 10.7546 11.408 10.5626 12.24 10.5626C13.0827 10.5626 13.8293 10.7546 14.48 11.1386C15.1307 11.5226 15.6373 12.0453 16 12.7066C16.3733 13.368 16.56 14.1253 16.56 14.9786C16.56 15.8213 16.3733 16.5733 16 17.2346C15.6373 17.9066 15.1307 18.4293 14.48 18.8026C13.84 19.1866 13.0933 19.3786 12.24 19.3786C11.3973 19.3786 10.6507 19.1866 10 18.8026C9.34933 18.4293 8.83733 17.9066 8.464 17.2346C8.09067 16.5733 7.904 15.8213 7.904 14.9786ZM9.248 14.9786C9.248 15.5226 9.37067 16.008 9.616 16.4346C9.86133 16.872 10.208 17.2133 10.656 17.4586C11.1147 17.704 11.6427 17.8266 12.24 17.8266C12.848 17.8266 13.3707 17.704 13.808 17.4586C14.256 17.2133 14.6027 16.872 14.848 16.4346C15.0933 16.008 15.216 15.5226 15.216 14.9786C15.216 14.4346 15.0933 13.9493 14.848 13.5226C14.6027 13.096 14.256 12.7546 13.808 12.4986C13.3707 12.2426 12.848 12.1146 12.24 12.1146C11.6427 12.1146 11.1147 12.2426 10.656 12.4986C10.208 12.7546 9.86133 13.096 9.616 13.5226C9.37067 13.9493 9.248 14.4346 9.248 14.9786ZM8 21.5029L19.872 21.5029L19.872 23.0389L8 23.0389L8 21.5029ZM8 25.9716L19.872 25.9716L19.872 27.5076L8 27.5076L8 25.9716ZM7.904 34.0724C7.904 33.219 8.09067 32.4617 8.464 31.8004C8.83733 31.139 9.34933 30.6164 10 30.2324C10.6613 29.8484 11.408 29.6564 12.24 29.6564C13.0827 29.6564 13.8293 29.8484 14.48 30.2324C15.1307 30.6164 15.6373 31.139 16 31.8004C16.3733 32.4617 16.56 33.219 16.56 34.0724C16.56 34.915 16.3733 35.667 16 36.3284C15.6373 37.0004 15.1307 37.523 14.48 37.8964C13.84 38.2804 13.0933 38.4724 12.24 38.4724C11.3973 38.4724 10.6507 38.2804 10 37.8964C9.34933 37.523 8.83733 37.0004 8.464 36.3284C8.09067 35.667 7.904 34.915 7.904 34.0724ZM9.248 34.0724C9.248 34.6164 9.37067 35.1017 9.616 35.5284C9.86133 35.9657 10.208 36.307 10.656 36.5524C11.1147 36.7977 11.6427 36.9204 12.24 36.9204C12.848 36.9204 13.3707 36.7977 13.808 36.5524C14.256 36.307 14.6027 35.9657 14.848 35.5284C15.0933 35.1017 15.216 34.6164 15.216 34.0724C15.216 33.5284 15.0933 33.043 14.848 32.6164C14.6027 32.1897 14.256 31.8484 13.808 31.5924C13.3707 31.3364 12.848 31.2084 12.24 31.2084C11.6427 31.2084 11.1147 31.3364 10.656 31.5924C10.208 31.8484 9.86133 32.1897 9.616 32.6164C9.37067 33.043 9.248 33.5284 9.248 34.0724ZM8 42.1542L16.48 39.0022L16.48 40.4582L8.8 43.2582L8.8 42.5702L16.48 45.4822L16.48 46.7782L8.8 49.6262L8.8 48.9542L16.48 51.8183L16.48 53.1943L8 50.0263L8 48.5543L15.008 45.8822L15.008 46.3302L8 43.6262L8 42.1542ZM7.904 62.6177C7.904 61.8924 8.03733 61.2524 8.304 60.6977C8.57066 60.1537 8.976 59.7271 9.52 59.4177C10.0747 59.1191 10.768 58.9697 11.6 58.9697L16.48 58.9697L16.48 60.5057L11.776 60.5057C10.944 60.5057 10.32 60.7031 9.904 61.0977C9.488 61.5031 9.28 62.0684 9.28 62.7937C9.28 63.3271 9.38666 63.7911 9.6 64.1857C9.824 64.5804 10.144 64.8844 10.56 65.0977C10.9867 65.3111 11.4987 65.4177 12.096 65.4177L16.48 65.4178L16.48 66.9538L8 66.9537L8 65.4977L10.288 65.4977L9.68 65.7377C9.11466 65.4604 8.67733 65.0444 8.368 64.4897C8.05866 63.9351 7.904 63.3111 7.904 62.6177ZM7.904 72.3099C7.904 71.6059 8 70.9339 8.192 70.2939C8.384 69.6645 8.61866 69.1685 8.896 68.8059L10.112 69.4459C9.86666 69.8085 9.65866 70.2565 9.488 70.7899C9.31733 71.3232 9.232 71.8672 9.232 72.4219C9.232 73.1365 9.33333 73.6485 9.536 73.9579C9.73866 74.2779 10.0213 74.4379 10.384 74.4379C10.6507 74.4379 10.8587 74.3419 11.008 74.1499C11.1573 73.9579 11.2693 73.7019 11.344 73.3819C11.4187 73.0725 11.4827 72.7259 11.536 72.3419C11.6 71.9579 11.6747 71.5739 11.76 71.1899C11.856 70.8059 11.984 70.4539 12.144 70.1339C12.3147 69.8139 12.544 69.5579 12.832 69.3659C13.1307 69.1739 13.5253 69.0779 14.016 69.0779C14.528 69.0779 14.976 69.2219 15.36 69.5099C15.744 69.7979 16.0373 70.2032 16.24 70.7259C16.4533 71.2592 16.56 71.8885 16.56 72.6139C16.56 73.1685 16.4907 73.7285 16.352 74.2939C16.224 74.8699 16.0373 75.3392 15.792 75.7019L14.576 75.0459C14.832 74.6619 15.008 74.2619 15.104 73.8459C15.2 73.4299 15.248 73.0139 15.248 72.5979C15.248 71.9259 15.136 71.4245 14.912 71.0939C14.6987 70.7632 14.4213 70.5979 14.08 70.5979C13.792 70.5979 13.568 70.6939 13.408 70.8859C13.2587 71.0885 13.1413 71.3445 13.056 71.6539C12.9707 71.9739 12.896 72.3259 12.832 72.7099C12.7787 73.0939 12.704 73.4779 12.608 73.8619C12.5227 74.2459 12.4 74.5925 12.24 74.9019C12.08 75.2219 11.856 75.4779 11.568 75.6699C11.28 75.8725 10.896 75.9739 10.416 75.9739C9.904 75.9739 9.46133 75.8245 9.088 75.5259C8.71466 75.2272 8.42133 74.8059 8.208 74.2619C8.00533 73.7179 7.904 73.0672 7.904 72.3099Z" fill="white"/>
<path d="M7.8 103H16.2C19.4032 103 22 105.597 22 108.8V117.2C22 120.403 19.4032 123 16.2 123H7.8C4.59675 123 2 120.403 2 117.2V108.8C2 105.597 4.59675 103 7.8 103ZM7.6 105C5.61177 105 4 106.612 4 108.6V117.4C4 119.388 5.61177 121 7.6 121H16.4C18.3882 121 20 119.388 20 117.4V108.6C20 106.612 18.3882 105 16.4 105H7.6ZM17.25 106.5C17.9404 106.5 18.5 107.06 18.5 107.75C18.5 108.44 17.9404 109 17.25 109C16.5596 109 16 108.44 16 107.75C16 107.06 16.5596 106.5 17.25 106.5ZM12 108C14.7614 108 17 110.239 17 113C17 115.761 14.7614 118 12 118C9.23857 118 7 115.761 7 113C7 110.239 9.23857 108 12 108ZM12 110C10.3431 110 9 111.343 9 113C9 114.657 10.3431 116 12 116C13.6569 116 15 114.657 15 113C15 111.343 13.6569 110 12 110Z" fill="white"/>
<path d="M22.4592 155.012C21.6896 155.354 20.8624 155.584 19.9944 155.688C20.8803 155.157 21.5609 154.316 21.8813 153.314C21.052 153.806 20.1336 154.163 19.156 154.355C18.3732 153.521 17.2579 153 16.0235 153C13.6534 153 11.7317 154.921 11.7317 157.292C11.7317 157.628 11.7697 157.955 11.8429 158.27C8.2761 158.091 5.11376 156.382 2.9971 153.786C2.62766 154.419 2.41602 155.157 2.41602 155.943C2.41602 157.432 3.17365 158.746 4.32524 159.515C3.6218 159.493 2.95997 159.3 2.3814 158.978C2.38099 158.996 2.38099 159.014 2.38099 159.032C2.38099 161.112 3.86034 162.846 5.8236 163.241C5.4635 163.339 5.08435 163.391 4.69295 163.391C4.41641 163.391 4.14756 163.364 3.88547 163.314C4.43162 165.019 6.01654 166.26 7.89455 166.295C6.42577 167.446 4.57528 168.132 2.56454 168.132C2.21813 168.132 1.87652 168.111 1.54078 168.072C3.44004 169.289 5.69592 170 8.11951 170C16.0134 170 20.3302 163.46 20.3302 157.789C20.3302 157.603 20.326 157.418 20.3177 157.234C21.1563 156.629 21.8839 155.873 22.4592 155.012Z" fill="white"/>
</svg>
