<svg width="1655" height="1630" viewBox="0 0 1655 1630" fill="none" xmlns="http://www.w3.org/2000/svg">
<g style="mix-blend-mode:plus-lighter" opacity="0.3" filter="url(#filter0_f_1_2758)">
<path d="M300.239 446.094C368.168 390.452 446.827 349.327 531.371 325.254C615.915 301.182 704.553 294.671 791.823 306.124C879.094 317.576 963.148 346.749 1038.81 391.845C1114.47 436.941 1180.13 497.005 1231.75 568.337C1283.37 639.668 1319.86 720.756 1338.96 806.605C1358.06 892.453 1359.37 981.244 1342.82 1067.51C1326.26 1153.77 1292.19 1235.68 1242.69 1308.18C1193.2 1380.69 1086.14 1238.08 1011.84 1284.91L831.342 1284.91L848.948 1236.39L642.862 983.681L300.239 446.094Z" fill="#D18BF3"/>
<path d="M830.863 1255.84L821.927 1265.46M423.348 639.256L348.441 521.726C353.099 518.757 354.468 512.575 351.5 507.918L313.476 448.258C328.045 436.662 343.098 425.735 358.585 415.5C363.171 412.469 364.448 406.31 361.458 401.709C392.743 381.728 425.71 364.494 459.988 350.201C462.06 355.282 467.846 357.749 472.952 355.713C492.927 347.746 513.338 340.786 534.11 334.872C554.901 328.952 575.943 324.111 597.154 320.355C602.566 319.396 606.186 314.251 605.27 308.841C641.971 302.928 679.126 300.201 716.319 300.69C716.203 306.176 720.535 310.738 726.03 310.895C747.555 311.512 769.08 313.225 790.522 316.039C811.98 318.855 833.241 322.759 854.226 327.724C859.575 328.989 864.937 325.7 866.241 320.37C902.329 329.5 937.569 341.732 971.564 356.928C969.285 361.92 971.457 367.824 976.44 370.145C995.985 379.246 1015.09 389.352 1033.69 400.435C1052.29 411.52 1070.27 423.522 1087.58 436.387C1091.99 439.666 1098.22 438.768 1101.52 434.389C1131.07 457.064 1158.6 482.246 1183.8 509.652C1179.74 513.335 1179.39 519.617 1183.05 523.72C1197.41 539.817 1210.96 556.662 1223.65 574.199C1236.34 591.726 1248.09 609.851 1258.88 628.498C1261.64 633.256 1267.71 634.895 1272.48 632.182C1290.62 664.675 1305.92 698.667 1318.2 733.777C1313 735.547 1310.2 741.18 1311.94 746.396C1318.74 766.846 1324.5 787.665 1329.2 808.777C1333.89 829.868 1337.49 851.14 1340 872.508C1340.65 877.967 1345.57 881.88 1351.03 881.282C1354.79 918.25 1355.34 955.464 1352.68 992.507C1347.21 992.07 1342.4 996.127 1341.92 1001.6C1340.04 1023.04 1337.07 1044.41 1333 1065.62C1328.93 1086.82 1323.79 1107.75 1317.6 1128.33C1316.02 1133.6 1318.98 1139.15 1324.23 1140.77C1312.99 1176.14 1298.72 1210.46 1281.55 1243.36C1276.71 1240.78 1270.68 1242.59 1268.06 1247.42C1257.82 1266.32 1246.6 1284.72 1234.43 1302.55C1228.42 1311.35 1221.9 1315.76 1215.14 1317.75C1208.14 1319.81 1199.85 1319.57 1189.98 1317.21C1184.75 1315.96 1179.5 1319.07 1178.04 1324.19C1163.42 1319.4 1147.81 1311.71 1131.82 1303.84C1115.35 1295.73 1098.48 1287.42 1081.86 1281.87C1081.89 1281.76 1081.92 1281.66 1081.95 1281.55C1083.36 1276.21 1080.19 1270.74 1074.85 1269.32C1053.02 1263.52 1030.17 1262.76 1009.06 1274.91L966.717 1274.91C961.194 1274.91 956.717 1279.39 956.717 1284.91L886.467 1284.91C886.467 1279.39 881.99 1274.91 876.467 1274.91L845.515 1274.91C846.573 1270.09 843.922 1265.11 839.154 1263.38L841.136 1257.92C846.328 1259.8 852.063 1257.12 853.947 1251.93L858.348 1239.8C859.549 1236.49 858.922 1232.8 856.698 1230.07L805.176 1166.89C801.686 1162.61 795.387 1161.97 791.107 1165.46L700.704 1054.61C704.984 1051.12 705.624 1044.82 702.133 1040.54L650.981 977.814L608.467 911.108C605.499 906.451 599.317 905.081 594.66 908.05L519.753 790.519C524.41 787.55 525.78 781.369 522.811 776.711L437.155 642.315C434.187 637.657 428.005 636.288 423.348 639.256Z" stroke="#F6FEFE" stroke-width="20" stroke-linecap="round" stroke-linejoin="round" stroke-dasharray="160 160"/>
</g>
<defs>
<filter id="filter0_f_1_2758" x="0.238831" y="0.634338" width="1654.09" height="1628.51" filterUnits="userSpaceOnUse" color-interpolation-filters="sRGB">
<feFlood flood-opacity="0" result="BackgroundImageFix"/>
<feBlend mode="normal" in="SourceGraphic" in2="BackgroundImageFix" result="shape"/>
<feGaussianBlur stdDeviation="150" result="effect1_foregroundBlur_1_2758"/>
</filter>
</defs>
</svg>
