<svg width="24" height="24" viewBox="0 0 24 24" fill="none" xmlns="http://www.w3.org/2000/svg">
<path d="M23.1928 6.46313C23.1361 6.32607 23.04 6.20892 22.9167 6.12648C22.7933 6.04405 22.6483 6.00003 22.5 6H19.6472C19.2483 5.32142 18.6807 4.75758 17.9994 4.36332C17.3181 3.96905 16.5465 3.75776 15.7594 3.75C15.173 3.74231 14.591 3.85198 14.0476 4.07255C13.5042 4.29312 13.0104 4.62014 12.5953 5.03437C12.1681 5.45365 11.829 5.95411 11.5979 6.50633C11.3669 7.05856 11.2486 7.6514 11.25 8.25V8.82094C7.47563 7.82531 4.38844 4.755 4.35563 4.72219C4.255 4.62068 4.12747 4.55003 3.98805 4.51857C3.84862 4.48711 3.70311 4.49614 3.56865 4.54461C3.43419 4.59307 3.31637 4.67895 3.22908 4.79213C3.14179 4.90531 3.08866 5.04107 3.07594 5.18344C2.67188 9.66375 3.97313 12.6619 5.13844 14.3878C5.70664 15.241 6.39786 16.0055 7.18969 16.6566C5.76188 18.3 3.51375 19.1634 3.48938 19.1728C3.38354 19.2124 3.28804 19.2755 3.21 19.3572C3.13195 19.439 3.07339 19.5373 3.03868 19.6448C3.00397 19.7524 2.99402 19.8664 3.00956 19.9783C3.0251 20.0902 3.06574 20.1972 3.12844 20.2912C3.19875 20.3962 3.48 20.7647 4.16719 21.1087C5.01656 21.5344 6.13875 21.75 7.5 21.75C14.1253 21.75 19.6613 16.6481 20.2266 10.0837L23.0306 7.28063C23.1355 7.17568 23.2069 7.04199 23.2357 6.89648C23.2646 6.75096 23.2497 6.60015 23.1928 6.46313ZM18.9741 9.22031C18.8455 9.34921 18.7682 9.52049 18.7566 9.70219C18.375 15.6169 13.4325 20.25 7.5 20.25C6.51 20.25 5.8125 20.1187 5.32313 19.9612C6.40219 19.3753 7.90688 18.3675 8.87438 16.9162C8.93116 16.8309 8.96985 16.7348 8.98806 16.634C9.00626 16.5331 9.0036 16.4296 8.98023 16.3298C8.95686 16.23 8.91328 16.136 8.85218 16.0537C8.79109 15.9714 8.71377 15.9025 8.625 15.8512C8.58094 15.8259 4.50844 13.3819 4.5 6.85125C6 8.07 8.74219 9.96094 11.8753 10.4878C11.9827 10.5059 12.0927 10.5004 12.1978 10.4717C12.3028 10.443 12.4003 10.3917 12.4836 10.3215C12.5668 10.2513 12.6338 10.1638 12.6798 10.0651C12.7258 9.96643 12.7497 9.8589 12.75 9.75V8.25C12.7492 7.84992 12.8283 7.45372 12.9829 7.0847C13.1375 6.71568 13.3643 6.38131 13.65 6.10125C13.9239 5.82684 14.25 5.61013 14.6091 5.46392C14.9682 5.31771 15.3529 5.24497 15.7406 5.25C16.9275 5.265 18.0366 5.98875 18.5006 7.05094C18.5591 7.18448 18.6553 7.29808 18.7773 7.37783C18.8994 7.45759 19.042 7.50004 19.1878 7.5H20.6878L18.9741 9.22031Z" fill="white"/>
</svg>
